<?xml version="1.0" standalone="no"?><!DOCTYPE svg PUBLIC "-//W3C//DTD SVG 1.1//EN" "http://www.w3.org/Graphics/SVG/1.1/DTD/svg11.dtd"><svg t="1642390033600" class="icon" viewBox="0 0 1024 1024" version="1.1" xmlns="http://www.w3.org/2000/svg" p-id="1364" xmlns:xlink="http://www.w3.org/1999/xlink" width="200" height="200"><defs><style type="text/css"></style></defs><path d="M934.4 110.933333c-4.266667-8.533333-12.8-17.066667-21.333333-21.333333-4.266667-4.266667-12.8-4.266667-17.066667-4.266667h-256c-25.6 0-42.666667 17.066667-42.666667 42.666667s17.066667 42.666667 42.666667 42.666667h153.6l-226.133333 226.133333c-17.066667 17.066667-17.066667 42.666667 0 59.733333 8.533333 8.533333 21.333333 12.8 29.866666 12.8s21.333333-4.266667 29.866667-12.8L853.333333 230.4V384c0 25.6 17.066667 42.666667 42.666667 42.666667s42.666667-17.066667 42.666667-42.666667V128c0-4.266667 0-12.8-4.266667-17.066667zM396.8 567.466667L170.666667 793.6V640c0-25.6-17.066667-42.666667-42.666667-42.666667s-42.666667 17.066667-42.666667 42.666667v256c0 4.266667 0 12.8 4.266667 17.066667 4.266667 8.533333 12.8 17.066667 21.333333 21.333333 4.266667 4.266667 12.8 4.266667 17.066667 4.266667h256c25.6 0 42.666667-17.066667 42.666667-42.666667s-17.066667-42.666667-42.666667-42.666667H230.4l226.133333-226.133333c17.066667-17.066667 17.066667-42.666667 0-59.733333s-42.666667-17.066667-59.733333 0z" p-id="1365" fill="#707070"></path></svg>